# xmcd
#
# Track frame offsets: 
#        150
#        13272
#        25722
#        42847
#        56200
#        71050
#        84332
#        113367
#        123922
#
# Disc length: 1776 seconds
#
# Revision: 4
# Processed by: cddbd v1.5.2PL0 Copyright (c) Steve Scherf et al.
# Submitted via: ExactAudioCopy v0.95b2
#
DISCID=6c06ee09
DTITLE=The Stylistics - The Stylistics
DYEAR=1971
DGENRE=R&B
TTITLE0=Stop, Look, Listen (To Your Heart)
TTITLE1=Point Of No Return
TTITLE2=Betcha By Golly, Wow
TTITLE3=Country Living
TTITLE4=You're A Big Girl Now
TTITLE5=You Are Everything
TTITLE6=People Make The World Go Round
TTITLE7=Ebony Eyes
TTITLE8=If I Love You
EXTD=
EXTT0=
EXTT1=
EXTT2=
EXTT3=
EXTT4=
EXTT5=
EXTT6=
EXTT7=
EXTT8=
PLAYORDER=
